<svg xmlns="http://www.w3.org/2000/svg" width="320" height="240" viewBox="0 0 320 240">
<title>反向划船（动作）</title>
<desc>原创训练示意图，绿色强调目标肌群；姿势与文字说明一致，未描摹来源不明照片。</desc>
<defs>
  <linearGradient id="body" x1="0" y1="0" x2="1" y2="1">
    <stop stop-color="#E2EBED"/><stop offset=".46" stop-color="#AFBFC7"/><stop offset="1" stop-color="#708994"/>
  </linearGradient>
  <linearGradient id="muscle" x1="0" y1="0" x2=".8" y2="1">
    <stop stop-color="#F0F5F4"/><stop offset=".4" stop-color="#CDDADF"/><stop offset="1" stop-color="#91A7B2"/>
  </linearGradient>
  <linearGradient id="target" x1="0" y1="0" x2=".85" y2="1">
    <stop stop-color="#8EE4BC"/><stop offset=".35" stop-color="#39B38D"/><stop offset=".72" stop-color="#168269"/><stop offset="1" stop-color="#0B534D"/>
  </linearGradient>
  <linearGradient id="targetDeep" x1="0" y1="0" x2="1" y2=".8">
    <stop stop-color="#53CBA1"/><stop offset=".65" stop-color="#168269"/><stop offset="1" stop-color="#083D3D"/>
  </linearGradient>
  <linearGradient id="skin" x1="0" y1="0" x2="1" y2="1">
    <stop stop-color="#EDD0AD"/><stop offset=".5" stop-color="#C99670"/><stop offset="1" stop-color="#946345"/>
  </linearGradient>
  <linearGradient id="kit" x1="0" y1="0" x2="1" y2="1">
    <stop stop-color="#405764"/><stop offset="1" stop-color="#142C39"/>
  </linearGradient>
  <marker id="arr" viewBox="0 0 10 10" refX="8" refY="5" markerWidth="7" markerHeight="7" orient="auto-start-reverse">
    <path d="M0 1 L9 5 L0 9 Z" fill="#168269"/>
  </marker>
</defs>
<ellipse cx="160" cy="124" rx="115" ry="105" fill="#E9F3EF"/>
<path d="M49 83 A116 106 0 0 1 226 34 M260 166 A116 106 0 0 1 102 221" fill="none" stroke="#C5DDD3" stroke-width="1.3"/>
<circle cx="52" cy="80" r="3" fill="#52AD8D"/>
<circle cx="260" cy="168" r="2" fill="#93C7B2"/>
<line x1="70" y1="88" x2="250" y2="88" stroke="#2A4450" stroke-width="5" stroke-linecap="round"/>
    <rect x="66" y="70" width="6" height="28" fill="#243E4B"/>
    <rect x="248" y="70" width="6" height="28" fill="#243E4B"/><ellipse cx="160" cy="222" rx="108" ry="7" fill="#345D60" opacity=".12"/><line x1="160" y1="137.2" x2="160" y2="121.19999999999999" stroke="#168269" stroke-width="2.2" stroke-linecap="round" marker-end="url(#arr)" opacity=".85"/>
<path d="M 201.29354834727297 132.26451652727013 L 121.29354834727299 124.26451652727013 A 13 13 0 0 1 118.70645165272701 150.13548347272985 L 198.70645165272703 158.13548347272985 A 13 13 0 0 1 201.29354834727297 132.26451652727013 Z" fill="url(#target)" stroke="#246E62" stroke-width="1.2" stroke-linejoin="round"/><path d="M 199.55056144750498 154.1887710499006 L 239.55056144750498 156.1887710499006 A 9 9 0 0 1 240.44943855249502 138.21122895009938 L 200.44943855249502 136.21122895009938 A 9 9 0 0 1 199.55056144750498 154.1887710499006 Z" fill="url(#muscle)" stroke="#627D88" stroke-width="1.2" stroke-linejoin="round"/><path d="M 245.62100825431807 151.3718420637517 L 283.6210082543181 100.1718420637517 A 7 7 0 0 1 272.3789917456819 91.8281579362483 L 234.37899174568193 143.02815793624828 A 7 7 0 0 1 245.62100825431807 151.3718420637517 Z" fill="url(#muscle)" stroke="#627D88" stroke-width="1.2" stroke-linejoin="round"/><path d="M 112.5259068131634 136.57715890109694 L 110.5259068131634 160.57715890109694 A 7.5 7.5 0 0 1 125.4740931868366 161.82284109890304 L 127.4740931868366 137.82284109890304 A 7.5 7.5 0 0 1 112.5259068131634 136.57715890109694 Z" fill="url(#muscle)" stroke="#627D88" stroke-width="1.2" stroke-linejoin="round"/><path d="M 123.9977617117649 161.03612672918675 L 121.9977617117649 87.83612672918674 A 6 6 0 0 1 110.0022382882351 88.16387327081326 L 112.0022382882351 161.36387327081323 A 6 6 0 0 1 123.9977617117649 161.03612672918675 Z" fill="url(#muscle)" stroke="#627D88" stroke-width="1.2" stroke-linejoin="round"/><circle cx="120" cy="137.2" r="8" fill="url(#muscle)" stroke="#627D88" stroke-width="1.1"/><circle cx="96" cy="145.2" r="11" fill="url(#skin)" stroke="#9A7256" stroke-width="1.1"/><path d="M 89 141.2 Q 96 132.2 104 142.2" fill="#253B43"/><circle cx="278" cy="96" r="5" fill="url(#kit)" stroke="#243E4B" stroke-width="1.1"/>
</svg>
