<svg xmlns="http://www.w3.org/2000/svg" width="320" height="240" viewBox="0 0 320 240">
<title>跳绳（按次数）（动作）</title>
<desc>原创训练示意图，绿色强调目标肌群；姿势与文字说明一致，未描摹来源不明照片。</desc>
<defs>
  <linearGradient id="body" x1="0" y1="0" x2="1" y2="1">
    <stop stop-color="#E2EBED"/><stop offset=".46" stop-color="#AFBFC7"/><stop offset="1" stop-color="#708994"/>
  </linearGradient>
  <linearGradient id="muscle" x1="0" y1="0" x2=".8" y2="1">
    <stop stop-color="#F0F5F4"/><stop offset=".4" stop-color="#CDDADF"/><stop offset="1" stop-color="#91A7B2"/>
  </linearGradient>
  <linearGradient id="target" x1="0" y1="0" x2=".85" y2="1">
    <stop stop-color="#8EE4BC"/><stop offset=".35" stop-color="#39B38D"/><stop offset=".72" stop-color="#168269"/><stop offset="1" stop-color="#0B534D"/>
  </linearGradient>
  <linearGradient id="targetDeep" x1="0" y1="0" x2="1" y2=".8">
    <stop stop-color="#53CBA1"/><stop offset=".65" stop-color="#168269"/><stop offset="1" stop-color="#083D3D"/>
  </linearGradient>
  <linearGradient id="skin" x1="0" y1="0" x2="1" y2="1">
    <stop stop-color="#EDD0AD"/><stop offset=".5" stop-color="#C99670"/><stop offset="1" stop-color="#946345"/>
  </linearGradient>
  <linearGradient id="kit" x1="0" y1="0" x2="1" y2="1">
    <stop stop-color="#405764"/><stop offset="1" stop-color="#142C39"/>
  </linearGradient>
  <marker id="arr" viewBox="0 0 10 10" refX="8" refY="5" markerWidth="7" markerHeight="7" orient="auto-start-reverse">
    <path d="M0 1 L9 5 L0 9 Z" fill="#168269"/>
  </marker>
</defs>
<ellipse cx="160" cy="124" rx="115" ry="105" fill="#E9F3EF"/>
<path d="M49 83 A116 106 0 0 1 226 34 M260 166 A116 106 0 0 1 102 221" fill="none" stroke="#C5DDD3" stroke-width="1.3"/>
<circle cx="52" cy="80" r="3" fill="#52AD8D"/>
<circle cx="260" cy="168" r="2" fill="#93C7B2"/>
<ellipse cx="160" cy="222" rx="108" ry="7" fill="#345D60" opacity=".12"/><ellipse cx="160" cy="146.72057764219414" rx="26" ry="8" fill="none" stroke="#2A4450" stroke-width="3"/><ellipse cx="160" cy="146.72057764219414" rx="26" ry="8" fill="none" stroke="#2A4450" stroke-width="3" transform="rotate(70 160 146.72057764219414)"/>
<path d="M 172.99208075124824 150.11078657510694 L 171.2471059161232 100.14124522415216 A 13 13 0 0 1 145.2629444136267 101.04863213841719 L 147.00791924875176 151.01817348937197 A 13 13 0 0 1 172.99208075124824 150.11078657510694 Z" fill="url(#muscle)" stroke="#627D88" stroke-width="1.2" stroke-linejoin="round"/><path d="M 151.00548255682813 150.87857550256197 L 152.26186443811815 186.85664527524943 A 9 9 0 0 1 170.2508993244619 186.2284543346044 L 168.99451744317187 150.25038456191695 A 9 9 0 0 1 151.00548255682813 150.87857550256197 Z" fill="url(#muscle)" stroke="#627D88" stroke-width="1.2" stroke-linejoin="round"/><path d="M 154.26064609215635 186.29825332800942 L 153.0740632042713 220.2775414466587 A 7 7 0 0 1 167.06553478253866 220.76613440049368 L 168.2521176704237 186.78684628184442 A 7 7 0 0 1 154.26064609215635 186.29825332800942 Z" fill="url(#muscle)" stroke="#627D88" stroke-width="1.2" stroke-linejoin="round"/><path d="M 152.5096918414826 105.41584575393372 L 169.22216969333263 125.33300127502716 A 7.5 7.5 0 0 1 180.71283634011732 115.69118712972906 L 164.0003584882673 95.77403160863562 A 7.5 7.5 0 0 1 152.5096918414826 105.41584575393372 Z" fill="url(#muscle)" stroke="#627D88" stroke-width="1.2" stroke-linejoin="round"/><path d="M 172.91538215677096 126.15024992709355 L 195.46800505563277 134.3587333669096 A 6 6 0 0 1 199.5722467755408 123.0824219174787 L 177.019623876679 114.87393847766266 A 6 6 0 0 1 172.91538215677096 126.15024992709355 Z" fill="url(#muscle)" stroke="#627D88" stroke-width="1.2" stroke-linejoin="round"/><circle cx="158.25502516487495" cy="100.59493868128467" r="8" fill="url(#muscle)" stroke="#627D88" stroke-width="1.1"/><circle cx="157.55703523082494" cy="80.60712214090276" r="11" fill="url(#skin)" stroke="#9A7256" stroke-width="1.1"/><path d="M 150.55703523082494 76.60712214090276 Q 157.55703523082494 67.60712214090276 165.55703523082494 77.60712214090276" fill="#253B43"/><circle cx="160.069798993405" cy="220.5218379235762" r="5" fill="url(#kit)" stroke="#243E4B" stroke-width="1.1"/>
</svg>
