<svg xmlns="http://www.w3.org/2000/svg" width="320" height="240" viewBox="0 0 320 240">
<title>俯卧撑（结束）</title>
<desc>原创训练示意图，绿色强调目标肌群；姿势与文字说明一致，未描摹来源不明照片。</desc>
<defs>
  <linearGradient id="body" x1="0" y1="0" x2="1" y2="1">
    <stop stop-color="#E2EBED"/><stop offset=".46" stop-color="#AFBFC7"/><stop offset="1" stop-color="#708994"/>
  </linearGradient>
  <linearGradient id="muscle" x1="0" y1="0" x2=".8" y2="1">
    <stop stop-color="#F0F5F4"/><stop offset=".4" stop-color="#CDDADF"/><stop offset="1" stop-color="#91A7B2"/>
  </linearGradient>
  <linearGradient id="target" x1="0" y1="0" x2=".85" y2="1">
    <stop stop-color="#8EE4BC"/><stop offset=".35" stop-color="#39B38D"/><stop offset=".72" stop-color="#168269"/><stop offset="1" stop-color="#0B534D"/>
  </linearGradient>
  <linearGradient id="targetDeep" x1="0" y1="0" x2="1" y2=".8">
    <stop stop-color="#53CBA1"/><stop offset=".65" stop-color="#168269"/><stop offset="1" stop-color="#083D3D"/>
  </linearGradient>
  <linearGradient id="skin" x1="0" y1="0" x2="1" y2="1">
    <stop stop-color="#EDD0AD"/><stop offset=".5" stop-color="#C99670"/><stop offset="1" stop-color="#946345"/>
  </linearGradient>
  <linearGradient id="kit" x1="0" y1="0" x2="1" y2="1">
    <stop stop-color="#405764"/><stop offset="1" stop-color="#142C39"/>
  </linearGradient>
  <marker id="arr" viewBox="0 0 10 10" refX="8" refY="5" markerWidth="7" markerHeight="7" orient="auto-start-reverse">
    <path d="M0 1 L9 5 L0 9 Z" fill="#168269"/>
  </marker>
</defs>
<ellipse cx="160" cy="124" rx="115" ry="105" fill="#E9F3EF"/>
<path d="M49 83 A116 106 0 0 1 226 34 M260 166 A116 106 0 0 1 102 221" fill="none" stroke="#C5DDD3" stroke-width="1.3"/>
<circle cx="52" cy="80" r="3" fill="#52AD8D"/>
<circle cx="260" cy="168" r="2" fill="#93C7B2"/>
<ellipse cx="160" cy="222" rx="108" ry="7" fill="#345D60" opacity=".12"/><line x1="160" y1="158.64" x2="160" y2="142.64" stroke="#168269" stroke-width="2.2" stroke-linecap="round" marker-end="url(#arr)" opacity=".85"/>
<path d="M 201.6124515496597 137.7403876027223 L 137.6124515496597 129.7403876027223 A 13 13 0 0 1 134.3875484503403 155.53961239727766 L 198.3875484503403 163.53961239727766 A 13 13 0 0 1 201.6124515496597 137.7403876027223 Z" fill="url(#target)" stroke="#246E62" stroke-width="1.2" stroke-linejoin="round"/><circle cx="153.92000000000002" cy="144.88" r="11" fill="url(#targetDeep)" stroke="#246E62" stroke-width="1.1"/><path d="M 195.1263267217938 158.20619513211884 L 227.0263267217938 178.75419513211884 A 9 9 0 0 1 236.77367327820622 163.62180486788114 L 204.8736732782062 143.07380486788114 A 9 9 0 0 1 195.1263267217938 158.20619513211884 Z" fill="url(#muscle)" stroke="#627D88" stroke-width="1.2" stroke-linejoin="round"/><path d="M 228.10936522806185 177.0728184360924 L 254.20936522806184 193.88481843609242 A 7 7 0 0 1 261.7906347719382 182.11518156390758 L 235.69063477193816 165.30318156390757 A 7 7 0 0 1 228.10936522806185 177.0728184360924 Z" fill="url(#muscle)" stroke="#627D88" stroke-width="1.2" stroke-linejoin="round"/><path d="M 129.02881966622775 139.8736585977094 L 119.12881966622774 164.82165859770942 A 7.5 7.5 0 0 1 133.07118033377225 170.35434140229057 L 142.97118033377225 145.40634140229056 A 7.5 7.5 0 0 1 129.02881966622775 139.8736585977094 Z" fill="url(#muscle)" stroke="#627D88" stroke-width="1.2" stroke-linejoin="round"/><path d="M 120.52305573298219 165.37492687816754 L 112.42305573298219 185.78692687816755 A 6 6 0 0 1 123.57694426701781 190.21307312183245 L 131.6769442670178 169.80107312183245 A 6 6 0 0 1 120.52305573298219 165.37492687816754 Z" fill="url(#muscle)" stroke="#627D88" stroke-width="1.2" stroke-linejoin="round"/><path d="M 147.41387575504768 149.92842740423467 L 174.91387575504768 173.77642740423468 A 7 7 0 0 1 184.08612424495232 163.19957259576532 L 156.58612424495232 139.3515725957653 A 7 7 0 0 1 147.41387575504768 149.92842740423467 Z" fill="url(#muscle)" stroke="#627D88" stroke-width="1.2" stroke-linejoin="round"/><path d="M 175.89661666468032 172.64319296047012 L 198.39661666468032 192.15519296047012 A 5.5 5.5 0 0 1 205.60338333531968 183.84480703952988 L 183.10338333531968 164.33280703952988 A 5.5 5.5 0 0 1 175.89661666468032 172.64319296047012 Z" fill="url(#muscle)" stroke="#627D88" stroke-width="1.2" stroke-linejoin="round"/><circle cx="136" cy="142.64" r="8" fill="url(#muscle)" stroke="#627D88" stroke-width="1.1"/><circle cx="117.20614758428184" cy="135.7995971334866" r="11" fill="url(#skin)" stroke="#9A7256" stroke-width="1.1"/><path d="M 110.20614758428184 131.7995971334866 Q 117.20614758428184 122.7995971334866 125.20614758428184 132.7995971334866" fill="#253B43"/><circle cx="258" cy="188" r="5" fill="url(#kit)" stroke="#243E4B" stroke-width="1.1"/>
</svg>
