<svg xmlns="http://www.w3.org/2000/svg" width="320" height="240" viewBox="0 0 320 240">
<title>波比跳（按次数）（结束）</title>
<desc>原创训练示意图，绿色强调目标肌群；姿势与文字说明一致，未描摹来源不明照片。</desc>
<defs>
  <linearGradient id="body" x1="0" y1="0" x2="1" y2="1">
    <stop stop-color="#E2EBED"/><stop offset=".46" stop-color="#AFBFC7"/><stop offset="1" stop-color="#708994"/>
  </linearGradient>
  <linearGradient id="muscle" x1="0" y1="0" x2=".8" y2="1">
    <stop stop-color="#F0F5F4"/><stop offset=".4" stop-color="#CDDADF"/><stop offset="1" stop-color="#91A7B2"/>
  </linearGradient>
  <linearGradient id="target" x1="0" y1="0" x2=".85" y2="1">
    <stop stop-color="#8EE4BC"/><stop offset=".35" stop-color="#39B38D"/><stop offset=".72" stop-color="#168269"/><stop offset="1" stop-color="#0B534D"/>
  </linearGradient>
  <linearGradient id="targetDeep" x1="0" y1="0" x2="1" y2=".8">
    <stop stop-color="#53CBA1"/><stop offset=".65" stop-color="#168269"/><stop offset="1" stop-color="#083D3D"/>
  </linearGradient>
  <linearGradient id="skin" x1="0" y1="0" x2="1" y2="1">
    <stop stop-color="#EDD0AD"/><stop offset=".5" stop-color="#C99670"/><stop offset="1" stop-color="#946345"/>
  </linearGradient>
  <linearGradient id="kit" x1="0" y1="0" x2="1" y2="1">
    <stop stop-color="#405764"/><stop offset="1" stop-color="#142C39"/>
  </linearGradient>
  <marker id="arr" viewBox="0 0 10 10" refX="8" refY="5" markerWidth="7" markerHeight="7" orient="auto-start-reverse">
    <path d="M0 1 L9 5 L0 9 Z" fill="#168269"/>
  </marker>
</defs>
<ellipse cx="160" cy="124" rx="115" ry="105" fill="#E9F3EF"/>
<path d="M49 83 A116 106 0 0 1 226 34 M260 166 A116 106 0 0 1 102 221" fill="none" stroke="#C5DDD3" stroke-width="1.3"/>
<circle cx="52" cy="80" r="3" fill="#52AD8D"/>
<circle cx="260" cy="168" r="2" fill="#93C7B2"/>
<ellipse cx="160" cy="222" rx="108" ry="7" fill="#345D60" opacity=".12"/><line x1="160" y1="70" x2="160" y2="50" stroke="#168269" stroke-width="2.2" stroke-linecap="round" marker-end="url(#arr)" opacity=".85"/>
<path d="M 172.99208075124824 139.54630654286748 L 171.2471059161232 89.5767651919127 A 13 13 0 0 1 145.2629444136267 90.48415210617773 L 147.00791924875176 140.45369345713252 A 13 13 0 0 1 172.99208075124824 139.54630654286748 Z" fill="url(#muscle)" stroke="#627D88" stroke-width="1.2" stroke-linejoin="round"/><path d="M 151.00548255682813 140.3140954703225 L 152.26186443811815 176.29216524300995 A 9 9 0 0 1 170.2508993244619 175.66397430236492 L 168.99451744317187 139.6859045296775 A 9 9 0 0 1 151.00548255682813 140.3140954703225 Z" fill="url(#muscle)" stroke="#627D88" stroke-width="1.2" stroke-linejoin="round"/><path d="M 154.26064609215635 175.73377329576994 L 153.0740632042713 209.7130614144192 A 7 7 0 0 1 167.06553478253866 210.2016543682542 L 168.2521176704237 176.22236624960493 A 7 7 0 0 1 154.26064609215635 175.73377329576994 Z" fill="url(#muscle)" stroke="#627D88" stroke-width="1.2" stroke-linejoin="round"/><path d="M 165.30271982076925 92.59560972398774 L 174.19524354723666 68.16360158355411 A 7.5 7.5 0 0 1 160.09985423544805 63.03329943366907 L 151.20733050898065 87.4653075741027 A 7.5 7.5 0 0 1 165.30271982076925 92.59560972398774 Z" fill="url(#muscle)" stroke="#627D88" stroke-width="1.2" stroke-linejoin="round"/><path d="M 171.0042745494616 70.19471716732546 L 189.38934118431706 54.76781453484852 A 6 6 0 0 1 181.67588986807857 45.57528121742079 L 163.2908232332231 61.002183849897726 A 6 6 0 0 1 171.0042745494616 70.19471716732546 Z" fill="url(#muscle)" stroke="#627D88" stroke-width="1.2" stroke-linejoin="round"/><circle cx="158.25502516487495" cy="90.03045864904522" r="8" fill="url(#muscle)" stroke="#627D88" stroke-width="1.1"/><circle cx="157.55703523082494" cy="70.0426421086633" r="11" fill="url(#skin)" stroke="#9A7256" stroke-width="1.1"/><path d="M 150.55703523082494 66.0426421086633 Q 157.55703523082494 57.0426421086633 165.55703523082494 67.0426421086633" fill="#253B43"/><circle cx="160.069798993405" cy="209.9573578913367" r="5" fill="url(#kit)" stroke="#243E4B" stroke-width="1.1"/>
</svg>
