<svg xmlns="http://www.w3.org/2000/svg" width="320" height="240" viewBox="0 0 320 240">
<title>器械推胸（起始）</title>
<desc>原创训练示意图，绿色强调目标肌群；姿势与文字说明一致，未描摹来源不明照片。</desc>
<defs>
  <linearGradient id="body" x1="0" y1="0" x2="1" y2="1">
    <stop stop-color="#E2EBED"/><stop offset=".46" stop-color="#AFBFC7"/><stop offset="1" stop-color="#708994"/>
  </linearGradient>
  <linearGradient id="muscle" x1="0" y1="0" x2=".8" y2="1">
    <stop stop-color="#F0F5F4"/><stop offset=".4" stop-color="#CDDADF"/><stop offset="1" stop-color="#91A7B2"/>
  </linearGradient>
  <linearGradient id="target" x1="0" y1="0" x2=".85" y2="1">
    <stop stop-color="#8EE4BC"/><stop offset=".35" stop-color="#39B38D"/><stop offset=".72" stop-color="#168269"/><stop offset="1" stop-color="#0B534D"/>
  </linearGradient>
  <linearGradient id="targetDeep" x1="0" y1="0" x2="1" y2=".8">
    <stop stop-color="#53CBA1"/><stop offset=".65" stop-color="#168269"/><stop offset="1" stop-color="#083D3D"/>
  </linearGradient>
  <linearGradient id="skin" x1="0" y1="0" x2="1" y2="1">
    <stop stop-color="#EDD0AD"/><stop offset=".5" stop-color="#C99670"/><stop offset="1" stop-color="#946345"/>
  </linearGradient>
  <linearGradient id="kit" x1="0" y1="0" x2="1" y2="1">
    <stop stop-color="#405764"/><stop offset="1" stop-color="#142C39"/>
  </linearGradient>
  <marker id="arr" viewBox="0 0 10 10" refX="8" refY="5" markerWidth="7" markerHeight="7" orient="auto-start-reverse">
    <path d="M0 1 L9 5 L0 9 Z" fill="#168269"/>
  </marker>
</defs>
<ellipse cx="160" cy="124" rx="115" ry="105" fill="#E9F3EF"/>
<path d="M49 83 A116 106 0 0 1 226 34 M260 166 A116 106 0 0 1 102 221" fill="none" stroke="#C5DDD3" stroke-width="1.3"/>
<circle cx="52" cy="80" r="3" fill="#52AD8D"/>
<circle cx="260" cy="168" r="2" fill="#93C7B2"/>
<rect x="78" y="124" width="170" height="16" rx="6" fill="url(#kit)" stroke="#142C39" transform="rotate(-4.8 163 132)"/><rect x="88" y="140" width="8" height="27.28" rx="2" fill="#243E4B"/><rect x="230" y="140" width="8" height="28" rx="2" fill="#243E4B"/><rect x="70" y="40" width="180" height="150" rx="8" fill="none" stroke="#3A5561" stroke-width="5"/>
    <rect x="78" y="176" width="164" height="10" rx="3" fill="#243E4B"/><line x1="68" y1="108.48" x2="190" y2="108.48" stroke="#2A4450" stroke-width="3.2" stroke-linecap="round"/><g transform="translate(68 108.48) rotate(0)">
      <rect x="-4" y="-14" width="8" height="28" rx="2" fill="url(#kit)"/>
      <rect x="-7" y="-11" width="5" height="22" rx="1.5" fill="#1B3340"/>
    </g><g transform="translate(190 108.48) rotate(0)">
      <rect x="-4" y="-14" width="8" height="28" rx="2" fill="url(#kit)"/>
      <rect x="-7" y="-11" width="5" height="22" rx="1.5" fill="#1B3340"/>
    </g><circle cx="129" cy="108.48" r="2.2" fill="#D7E3E0" stroke="none" stroke-width="1.1"/><line x1="210" y1="142.32" x2="210" y2="120.32" stroke="#168269" stroke-width="2.2" stroke-linecap="round" marker-end="url(#arr)" opacity=".85"/>
<path d="M 190.30298897809845 112.40561678834196 L 110.30298897809845 98.00561678834195 A 13 13 0 0 1 105.69701102190155 123.59438321165804 L 185.69701102190155 137.99438321165803 A 13 13 0 0 1 190.30298897809845 112.40561678834196 Z" fill="url(#target)" stroke="#246E62" stroke-width="1.2" stroke-linejoin="round"/><circle cx="130.4" cy="114.832" r="11" fill="url(#targetDeep)" stroke="#246E62" stroke-width="1.1"/><path d="M 187.47589095601634 134.18472646829133 L 235.47589095601634 136.9847264682913 A 9 9 0 0 1 236.52410904398366 119.01527353170869 L 188.52410904398366 116.21527353170869 A 9 9 0 0 1 187.47589095601634 134.18472646829133 Z" fill="url(#muscle)" stroke="#627D88" stroke-width="1.2" stroke-linejoin="round"/><path d="M 237.7814530949575 134.76952176083853 L 275.7814530949575 124.76952176083853 A 7 7 0 0 1 272.2185469050425 111.23047823916147 L 234.2185469050425 121.23047823916147 A 7 7 0 0 1 237.7814530949575 134.76952176083853 Z" fill="url(#muscle)" stroke="#627D88" stroke-width="1.2" stroke-linejoin="round"/><path d="M 187.09910064876541 133.1491119226581 L 247.09910064876541 139.9491119226581 A 8 8 0 0 1 248.90089935123459 124.05088807734191 L 188.90089935123459 117.25088807734191 A 8 8 0 0 1 187.09910064876541 133.1491119226581 Z" fill="url(#muscle)" stroke="#627D88" stroke-width="1.2" stroke-linejoin="round"/><path d="M 249.6542064453177 138.2859844922072 L 287.6542064453177 128.2859844922072 A 6.5 6.5 0 0 1 284.3457935546823 115.7140155077928 L 246.3457935546823 125.7140155077928 A 6.5 6.5 0 0 1 249.6542064453177 138.2859844922072 Z" fill="url(#muscle)" stroke="#627D88" stroke-width="1.2" stroke-linejoin="round"/><path d="M 100.5 110.8 L 100.5 140.88000000000002 A 7.5 7.5 0 0 1 115.5 140.88000000000002 L 115.5 110.8 A 7.5 7.5 0 0 1 100.5 110.8 Z" fill="url(#muscle)" stroke="#627D88" stroke-width="1.2" stroke-linejoin="round"/><path d="M 114 140.88000000000002 L 114 108.48 A 6 6 0 0 1 102 108.48 L 102 140.88000000000002 A 6 6 0 0 1 114 140.88000000000002 Z" fill="url(#muscle)" stroke="#627D88" stroke-width="1.2" stroke-linejoin="round"/><path d="M 121.061082765894 111.7227283555992 L 125.061082765894 141.8027283555992 A 7 7 0 0 1 138.938917234106 139.95727164440083 L 134.938917234106 109.87727164440079 A 7 7 0 0 1 121.061082765894 111.7227283555992 Z" fill="url(#muscle)" stroke="#627D88" stroke-width="1.2" stroke-linejoin="round"/><path d="M 136.80786501866845 143.5510361214825 L 154.80786501866845 111.15103612148248 A 5.5 5.5 0 0 1 145.19213498133155 105.80896387851753 L 127.19213498133155 138.20896387851755 A 5.5 5.5 0 0 1 136.80786501866845 143.5510361214825 Z" fill="url(#muscle)" stroke="#627D88" stroke-width="1.2" stroke-linejoin="round"/><circle cx="108" cy="110.8" r="8" fill="url(#muscle)" stroke="#627D88" stroke-width="1.1"/><circle cx="86.21410248768545" cy="107.73819177887856" r="11" fill="url(#skin)" stroke="#9A7256" stroke-width="1.1"/><path d="M 79.21410248768545 103.73819177887856 Q 86.21410248768545 94.73819177887856 94.21410248768545 104.73819177887856" fill="#253B43"/><circle cx="274" cy="118" r="5" fill="url(#kit)" stroke="#243E4B" stroke-width="1.1"/><circle cx="286" cy="122" r="5" fill="url(#kit)" stroke="#243E4B" stroke-width="1.1"/>
</svg>
