<svg xmlns="http://www.w3.org/2000/svg" width="320" height="240" viewBox="0 0 320 240">
<title>提踵（动作）</title>
<desc>原创训练示意图，绿色强调目标肌群；姿势与文字说明一致，未描摹来源不明照片。</desc>
<defs>
  <linearGradient id="body" x1="0" y1="0" x2="1" y2="1">
    <stop stop-color="#E2EBED"/><stop offset=".46" stop-color="#AFBFC7"/><stop offset="1" stop-color="#708994"/>
  </linearGradient>
  <linearGradient id="muscle" x1="0" y1="0" x2=".8" y2="1">
    <stop stop-color="#F0F5F4"/><stop offset=".4" stop-color="#CDDADF"/><stop offset="1" stop-color="#91A7B2"/>
  </linearGradient>
  <linearGradient id="target" x1="0" y1="0" x2=".85" y2="1">
    <stop stop-color="#8EE4BC"/><stop offset=".35" stop-color="#39B38D"/><stop offset=".72" stop-color="#168269"/><stop offset="1" stop-color="#0B534D"/>
  </linearGradient>
  <linearGradient id="targetDeep" x1="0" y1="0" x2="1" y2=".8">
    <stop stop-color="#53CBA1"/><stop offset=".65" stop-color="#168269"/><stop offset="1" stop-color="#083D3D"/>
  </linearGradient>
  <linearGradient id="skin" x1="0" y1="0" x2="1" y2="1">
    <stop stop-color="#EDD0AD"/><stop offset=".5" stop-color="#C99670"/><stop offset="1" stop-color="#946345"/>
  </linearGradient>
  <linearGradient id="kit" x1="0" y1="0" x2="1" y2="1">
    <stop stop-color="#405764"/><stop offset="1" stop-color="#142C39"/>
  </linearGradient>
  <marker id="arr" viewBox="0 0 10 10" refX="8" refY="5" markerWidth="7" markerHeight="7" orient="auto-start-reverse">
    <path d="M0 1 L9 5 L0 9 Z" fill="#168269"/>
  </marker>
</defs>
<ellipse cx="160" cy="124" rx="115" ry="105" fill="#E9F3EF"/>
<path d="M49 83 A116 106 0 0 1 226 34 M260 166 A116 106 0 0 1 102 221" fill="none" stroke="#C5DDD3" stroke-width="1.3"/>
<circle cx="52" cy="80" r="3" fill="#52AD8D"/>
<circle cx="260" cy="168" r="2" fill="#93C7B2"/>
<ellipse cx="160" cy="222" rx="108" ry="7" fill="#345D60" opacity=".12"/><line x1="110" y1="87.5" x2="210" y2="87.5" stroke="#2A4450" stroke-width="3.2" stroke-linecap="round"/><g transform="translate(110 87.5) rotate(0)">
      <rect x="-4" y="-14" width="8" height="28" rx="2" fill="url(#kit)"/>
      <rect x="-7" y="-11" width="5" height="22" rx="1.5" fill="#1B3340"/>
    </g><g transform="translate(210 87.5) rotate(0)">
      <rect x="-4" y="-14" width="8" height="28" rx="2" fill="url(#kit)"/>
      <rect x="-7" y="-11" width="5" height="22" rx="1.5" fill="#1B3340"/>
    </g><circle cx="160" cy="87.5" r="2.2" fill="#D7E3E0" stroke="none" stroke-width="1.1"/><line x1="160" y1="199.8" x2="160" y2="183.8" stroke="#168269" stroke-width="2.2" stroke-linecap="round" marker-end="url(#arr)" opacity=".85"/>
<path d="M 172.99208075124824 139.04630654286748 L 171.2471059161232 89.0767651919127 A 13 13 0 0 1 145.2629444136267 89.98415210617773 L 147.00791924875176 139.95369345713252 A 13 13 0 0 1 172.99208075124824 139.04630654286748 Z" fill="url(#muscle)" stroke="#627D88" stroke-width="1.2" stroke-linejoin="round"/><path d="M 151 139.5 L 151 169.2 A 9 9 0 0 1 169 169.2 L 169 139.5 A 9 9 0 0 1 151 139.5 Z" fill="url(#muscle)" stroke="#627D88" stroke-width="1.2" stroke-linejoin="round"/><path d="M 153 169.2 L 153 199.8 A 7 7 0 0 1 167 199.8 L 167 169.2 A 7 7 0 0 1 153 169.2 Z" fill="url(#target)" stroke="#246E62" stroke-width="1.2" stroke-linejoin="round"/><path d="M 150.86896701728338 90.83281998154719 L 155.38381963662357 116.4378215598646 A 7.5 7.5 0 0 1 170.1559359318067 113.83309889486065 L 165.64108331246652 88.22809731654324 A 7.5 7.5 0 0 1 150.86896701728338 90.83281998154719 Z" fill="url(#muscle)" stroke="#627D88" stroke-width="1.2" stroke-linejoin="round"/><path d="M 156.86103126614188 116.1773492933642 L 161.0285875301482 139.8127353656572 A 6 6 0 0 1 172.84628056629472 137.72895723365406 L 168.6787243022884 114.09357116136106 A 6 6 0 0 1 156.86103126614188 116.1773492933642 Z" fill="url(#muscle)" stroke="#627D88" stroke-width="1.2" stroke-linejoin="round"/><circle cx="158.25502516487495" cy="89.53045864904522" r="8" fill="url(#muscle)" stroke="#627D88" stroke-width="1.1"/><circle cx="157.55703523082494" cy="69.5426421086633" r="11" fill="url(#skin)" stroke="#9A7256" stroke-width="1.1"/><path d="M 150.55703523082494 65.5426421086633 Q 157.55703523082494 56.5426421086633 165.55703523082494 66.5426421086633" fill="#253B43"/><circle cx="160" cy="199.8" r="5" fill="url(#kit)" stroke="#243E4B" stroke-width="1.1"/>
</svg>
