<svg xmlns="http://www.w3.org/2000/svg" width="320" height="240" viewBox="0 0 320 240">
<title>阿诺德推举（结束）</title>
<desc>原创训练示意图，绿色强调目标肌群；姿势与文字说明一致，未描摹来源不明照片。</desc>
<defs>
  <linearGradient id="body" x1="0" y1="0" x2="1" y2="1">
    <stop stop-color="#E2EBED"/><stop offset=".46" stop-color="#AFBFC7"/><stop offset="1" stop-color="#708994"/>
  </linearGradient>
  <linearGradient id="muscle" x1="0" y1="0" x2=".8" y2="1">
    <stop stop-color="#F0F5F4"/><stop offset=".4" stop-color="#CDDADF"/><stop offset="1" stop-color="#91A7B2"/>
  </linearGradient>
  <linearGradient id="target" x1="0" y1="0" x2=".85" y2="1">
    <stop stop-color="#8EE4BC"/><stop offset=".35" stop-color="#39B38D"/><stop offset=".72" stop-color="#168269"/><stop offset="1" stop-color="#0B534D"/>
  </linearGradient>
  <linearGradient id="targetDeep" x1="0" y1="0" x2="1" y2=".8">
    <stop stop-color="#53CBA1"/><stop offset=".65" stop-color="#168269"/><stop offset="1" stop-color="#083D3D"/>
  </linearGradient>
  <linearGradient id="skin" x1="0" y1="0" x2="1" y2="1">
    <stop stop-color="#EDD0AD"/><stop offset=".5" stop-color="#C99670"/><stop offset="1" stop-color="#946345"/>
  </linearGradient>
  <linearGradient id="kit" x1="0" y1="0" x2="1" y2="1">
    <stop stop-color="#405764"/><stop offset="1" stop-color="#142C39"/>
  </linearGradient>
  <marker id="arr" viewBox="0 0 10 10" refX="8" refY="5" markerWidth="7" markerHeight="7" orient="auto-start-reverse">
    <path d="M0 1 L9 5 L0 9 Z" fill="#168269"/>
  </marker>
</defs>
<ellipse cx="160" cy="124" rx="115" ry="105" fill="#E9F3EF"/>
<path d="M49 83 A116 106 0 0 1 226 34 M260 166 A116 106 0 0 1 102 221" fill="none" stroke="#C5DDD3" stroke-width="1.3"/>
<circle cx="52" cy="80" r="3" fill="#52AD8D"/>
<circle cx="260" cy="168" r="2" fill="#93C7B2"/>
<ellipse cx="160" cy="222" rx="108" ry="7" fill="#345D60" opacity=".12"/><rect x="120" y="168" width="70" height="14" rx="6" fill="url(#kit)" stroke="#142C39" transform="rotate(0 155 175)"/><rect x="130" y="182" width="8" height="28" rx="2" fill="#243E4B"/><rect x="172" y="182" width="8" height="28" rx="2" fill="#243E4B"/><rect x="178" y="120" width="12" height="50" fill="#243E4B"/><g transform="translate(160.80561267715476 78.64630712470364) rotate(9.599999999999994)">
    <rect x="-11" y="-4" width="22" height="8" rx="2" fill="#2A4450"/>
    <rect x="-16" y="-8" width="6" height="16" rx="2" fill="url(#kit)"/>
    <rect x="10" y="-8" width="6" height="16" rx="2" fill="url(#kit)"/>
  </g><g transform="translate(188 78.64630712470364) rotate(-9.599999999999994)">
    <rect x="-11" y="-4" width="22" height="8" rx="2" fill="#2A4450"/>
    <rect x="-16" y="-8" width="6" height="16" rx="2" fill="url(#kit)"/>
    <rect x="10" y="-8" width="6" height="16" rx="2" fill="url(#kit)"/>
  </g><line x1="160.80561267715476" y1="78.64630712470364" x2="160.80561267715476" y2="60.64630712470364" stroke="#168269" stroke-width="2.2" stroke-linecap="round" marker-end="url(#arr)" opacity=".85"/>
<path d="M 172.99208075124824 167.54630654286748 L 171.3169049095282 119.5755468459509 A 13 13 0 0 1 145.33274340703173 120.48293376021593 L 147.00791924875176 168.45369345713252 A 13 13 0 0 1 172.99208075124824 167.54630654286748 Z" fill="url(#muscle)" stroke="#627D88" stroke-width="1.2" stroke-linejoin="round"/><path d="M 160 177 L 196 177 A 9 9 0 0 1 196 159 L 160 159 A 9 9 0 0 1 160 177 Z" fill="url(#muscle)" stroke="#627D88" stroke-width="1.2" stroke-linejoin="round"/><path d="M 190.68520378344292 172.5555396141918 L 214.68520378344292 200.5555396141918 A 7 7 0 0 1 225.31479621655708 191.4444603858082 L 201.31479621655708 163.4444603858082 A 7 7 0 0 1 190.68520378344292 172.5555396141918 Z" fill="url(#muscle)" stroke="#627D88" stroke-width="1.2" stroke-linejoin="round"/><path d="M 165.81138414776493 120.47803816832233 L 166.80369955531484 103.92486489697042 A 7.5 7.5 0 0 1 151.83057957634492 103.02726916649259 L 150.838264168795 119.5804424378445 A 7.5 7.5 0 0 1 165.81138414776493 120.47803816832233 Z" fill="url(#target)" stroke="#246E62" stroke-width="1.2" stroke-linejoin="round"/><path d="M 165.30638755741785 103.83510532392263 L 166.79486066874273 79.00534541689477 A 6 6 0 0 1 154.81636468556678 78.28726883251251 L 153.3278915742419 103.11702873954037 A 6 6 0 0 1 165.30638755741785 103.83510532392263 Z" fill="url(#muscle)" stroke="#627D88" stroke-width="1.2" stroke-linejoin="round"/><path d="M 171.56233631864856 126.05499834276915 L 199.56233631864856 109.50182507141724 A 7 7 0 0 1 192.43766368135144 97.45030899204576 L 164.43766368135144 114.00348226339767 A 7 7 0 0 1 171.56233631864856 126.05499834276915 Z" fill="url(#target)" stroke="#246E62" stroke-width="1.2" stroke-linejoin="round"/><path d="M 201.2349884467954 101.78938509315547 L 193.2349884467954 76.95962518612761 A 5.5 5.5 0 0 1 182.7650115532046 80.33298906327967 L 190.7650115532046 105.16274897030753 A 5.5 5.5 0 0 1 201.2349884467954 101.78938509315547 Z" fill="url(#muscle)" stroke="#627D88" stroke-width="1.2" stroke-linejoin="round"/><circle cx="158.32482415827997" cy="120.02924030308341" r="8" fill="url(#target)" stroke="#246E62" stroke-width="1.1"/><circle cx="157.62683422422995" cy="100.0414237627015" r="11" fill="url(#skin)" stroke="#9A7256" stroke-width="1.1"/><path d="M 150.62683422422995 96.0414237627015 Q 157.62683422422995 87.0414237627015 165.62683422422995 97.0414237627015" fill="#253B43"/><circle cx="220" cy="196" r="5" fill="url(#kit)" stroke="#243E4B" stroke-width="1.1"/>
</svg>
